<?xml version="1.0" encoding="UTF-8" standalone="no"?>
<!DOCTYPE svg PUBLIC "-//W3C//DTD SVG 1.1//EN" "http://www.w3.org/Graphics/SVG/1.1/DTD/svg11.dtd">
<svg width="100%" height="100%" viewBox="0 0 1080 1080" version="1.1" xmlns="http://www.w3.org/2000/svg" xmlns:xlink="http://www.w3.org/1999/xlink" xml:space="preserve" xmlns:serif="http://www.serif.com/" style="fill-rule:evenodd;clip-rule:evenodd;stroke-linecap:round;stroke-linejoin:round;stroke-miterlimit:1.5;">
    <g transform="matrix(1.13663,0,0,1.23795,-81.1225,-118.899)">
        <path d="M1021.55,273.247L1021.55,791.254C1021.55,889.055 935.068,968.457 828.549,968.457L264.368,968.457C157.85,968.457 71.371,889.055 71.371,791.254L71.371,273.247C71.371,175.447 157.85,96.045 264.368,96.045L828.549,96.045C935.068,96.045 1021.55,175.447 1021.55,273.247Z" style="fill:white;stroke:white;stroke-width:0.84px;"/>
    </g>
    <g transform="matrix(0.827543,0,0,0.827543,22.3398,144.887)">
        <g transform="matrix(696.037,0,0,696.037,90.6148,729.767)">
            <path d="M0.04,-0L0.033,-0.202L0.088,-0.202L0.096,-0.165C0.099,-0.151 0.105,-0.139 0.112,-0.129C0.119,-0.12 0.13,-0.113 0.144,-0.108C0.157,-0.103 0.176,-0.101 0.199,-0.101L0.287,-0.101L0.292,-0.152C0.24,-0.167 0.196,-0.186 0.16,-0.21C0.123,-0.235 0.096,-0.265 0.077,-0.302C0.058,-0.339 0.049,-0.383 0.049,-0.434C0.049,-0.49 0.061,-0.539 0.087,-0.583C0.113,-0.627 0.151,-0.661 0.202,-0.687C0.254,-0.712 0.318,-0.725 0.395,-0.725C0.468,-0.725 0.529,-0.713 0.58,-0.69C0.631,-0.666 0.67,-0.633 0.697,-0.591C0.724,-0.549 0.738,-0.5 0.738,-0.444C0.738,-0.393 0.728,-0.348 0.709,-0.309C0.691,-0.27 0.663,-0.238 0.627,-0.212C0.591,-0.186 0.546,-0.166 0.494,-0.151L0.499,-0.101L0.586,-0.101C0.609,-0.101 0.628,-0.103 0.642,-0.108C0.656,-0.112 0.667,-0.119 0.674,-0.128C0.682,-0.138 0.688,-0.15 0.69,-0.165L0.698,-0.202L0.753,-0.202L0.746,-0L0.449,-0L0.431,-0.201C0.463,-0.212 0.488,-0.228 0.508,-0.25C0.527,-0.271 0.542,-0.297 0.551,-0.33C0.56,-0.362 0.564,-0.4 0.564,-0.444C0.564,-0.489 0.559,-0.527 0.547,-0.559C0.536,-0.591 0.517,-0.616 0.492,-0.634C0.467,-0.651 0.434,-0.66 0.394,-0.66C0.353,-0.66 0.32,-0.651 0.295,-0.633C0.269,-0.614 0.25,-0.589 0.239,-0.556C0.227,-0.523 0.221,-0.484 0.221,-0.44C0.221,-0.396 0.226,-0.358 0.235,-0.326C0.244,-0.295 0.258,-0.269 0.278,-0.248C0.298,-0.228 0.324,-0.212 0.355,-0.201L0.337,-0L0.04,-0Z" style="fill-rule:nonzero;"/>
        </g>
        <g transform="matrix(696.037,0,0,696.037,637.742,729.767)">
            <path d="M0.004,-0L0.004,-0.053L0.016,-0.053C0.028,-0.053 0.039,-0.055 0.048,-0.059C0.057,-0.062 0.066,-0.069 0.074,-0.08C0.081,-0.091 0.089,-0.106 0.096,-0.126L0.313,-0.714L0.451,-0.714L0.664,-0.114C0.67,-0.099 0.677,-0.088 0.684,-0.079C0.691,-0.07 0.699,-0.063 0.709,-0.059C0.718,-0.055 0.729,-0.053 0.741,-0.053L0.753,-0.053L0.753,-0L0.423,-0L0.423,-0.053L0.456,-0.053C0.471,-0.053 0.483,-0.056 0.492,-0.062C0.501,-0.067 0.505,-0.077 0.505,-0.091C0.505,-0.096 0.505,-0.102 0.504,-0.107C0.503,-0.112 0.501,-0.118 0.5,-0.123C0.499,-0.128 0.497,-0.132 0.496,-0.135L0.461,-0.235L0.218,-0.235L0.189,-0.149C0.188,-0.144 0.186,-0.138 0.184,-0.131C0.182,-0.124 0.18,-0.117 0.179,-0.11C0.178,-0.103 0.177,-0.097 0.177,-0.092C0.177,-0.079 0.181,-0.07 0.189,-0.063C0.196,-0.056 0.209,-0.053 0.226,-0.053L0.264,-0.053L0.264,-0L0.004,-0ZM0.239,-0.296L0.441,-0.296L0.382,-0.48C0.377,-0.495 0.372,-0.51 0.367,-0.525C0.362,-0.54 0.358,-0.555 0.354,-0.57C0.35,-0.584 0.346,-0.6 0.343,-0.615C0.34,-0.6 0.336,-0.586 0.332,-0.572C0.328,-0.557 0.324,-0.543 0.32,-0.529C0.315,-0.514 0.31,-0.5 0.304,-0.485L0.239,-0.296Z" style="fill-rule:nonzero;"/>
        </g>
        <g transform="matrix(696.037,0,0,696.037,1161.96,729.767)">
        </g>
    </g>
</svg>
